<?xml version="1.0" encoding="UTF-8"?>
<svg id="Layer_1" data-name="Layer 1" xmlns="http://www.w3.org/2000/svg" viewBox="0 0 256 256">
  <defs>
    <style>
      .cls-1 {
        fill: #c8a96e;
      }
    </style>
  </defs>
  <rect x="-268.94" y="-1.39" width="527.43" height="258.79"/>
  <g>
    <path class="cls-1" d="M110.47,136.72c-2.98,5.04-4.74,11.17-4.74,17.79v34.3h-2.11V67.19h2.11v63.95c1.37-1.11,3.18-2.84,4.74-5.16,2.37-3.55,4.15-8.49,2.88-14.81,0,0,4.13,10,11.91,9.93h0c1.02-.01,2.09-.19,3.23-.59h0c1.98-.69,4.15-2.04,6.5-4.27,14.04-13.36,6.77-35.01,6.77-35.01,0,0-4.84-14.21-18.82-10.66,0,0-7.81,2.27-7.81,12.8,1.2-.63,2.56-.98,4-.98,4.78,0,8.66,3.88,8.66,8.66s-3.88,8.66-8.66,8.66-8.66-3.88-8.66-8.66v-23.85h21.87c5.46,0,10.82,1.73,15.11,5.09,5.31,4.17,10.13,11.57,8.18,24.51-2.03,13.49-11.85,20.17-20.8,23.47,11.27,.58,21.11,6.61,26.91,15.51,.01,.02,.02,.04,.04,.06,1.6,2.41,2.71,4.74,3.49,6.82-2.18,2.44-5.4,6.02-7.32,8.08-.51-4.62-1.82-8.38-2.94-10.89,0,0,0,0,0,0-4.42-9.73-13.1-16.34-23.08-16.34-8.88,0-16.73,5.23-21.46,13.23Z"/>
    <path class="cls-1" d="M167.32,154.51c0,18.94-15.35,34.3-34.29,34.3h-22.56v-16.5c4.74,8,12.58,13.22,21.46,13.22,12.5,0,22.96-10.37,25.57-24.24l9.64-10.25c.11,1.14,.17,2.3,.17,3.47Z"/>
    <rect class="cls-1" x="88.65" y="67.19" width="10.32" height="121.62"/>
    <path class="cls-1" d="M166.79,148.35l-8.83,9.63-12.81,13.97-5.08,1.5,.17,1.06-7.52,.94-.48-2.94,7.2-2.27,.34,1.14,4.12-1.13,14.22-16.22,7.92-9.04c.37,1.29,.6,2.42,.75,3.35Z"/>
    <path class="cls-1" d="M132.78,140.69c-6.91,0-12.51,5.6-12.51,12.51s5.6,12.51,12.51,12.51,12.51-5.6,12.51-12.51-5.6-12.51-12.51-12.51Zm0,13.86c-.74,0-1.35-.6-1.35-1.35s.6-1.35,1.35-1.35,1.35,.6,1.35,1.35-.6,1.35-1.35,1.35Z"/>
    <path class="cls-1" d="M155.01,139.83s5.68,11.3,1.49,25.51l10.55-7.04s2.19-11.63-5.25-22.26"/>
  </g>
</svg>