<?xml version="1.0" encoding="UTF-8"?>
<svg id="Layer_1" data-name="Layer 1" xmlns="http://www.w3.org/2000/svg" viewBox="0 0 256 256">
  <defs>
    <style>
      .cls-1 {
        fill: #c8a96e;
      }
    </style>
  </defs>
  <rect x="-2.4" y="-1.39" width="527.43" height="258.79"/>
  <g>
    <path class="cls-1" d="M110.81,136.56c-2.93,4.94-4.65,10.96-4.65,17.46v33.65h-2.07V68.33h2.07v62.75c1.34-1.09,3.12-2.78,4.65-5.07,2.33-3.48,4.08-8.33,2.82-14.53,0,0,4.05,9.81,11.69,9.75h0c1-.01,2.05-.19,3.17-.58h0c1.95-.68,4.07-2,6.38-4.19,13.78-13.11,6.64-34.36,6.64-34.36,0,0-4.75-13.94-18.47-10.46,0,0-7.66,2.22-7.67,12.56,1.17-.61,2.51-.96,3.93-.96,4.69,0,8.49,3.8,8.49,8.49s-3.8,8.49-8.49,8.49-8.49-3.8-8.49-8.49v-23.41h21.46c5.36,0,10.61,1.69,14.83,5,5.21,4.09,9.94,11.35,8.03,24.05-1.99,13.23-11.63,19.79-20.41,23.03,11.06,.57,20.71,6.49,26.41,15.22,.01,.02,.02,.04,.04,.06,1.57,2.36,2.66,4.65,3.42,6.69-2.14,2.39-5.29,5.91-7.18,7.93-.5-4.53-1.79-8.22-2.88-10.68,0,0,0,0,0,0-4.34-9.54-12.85-16.03-22.65-16.03-8.71,0-16.41,5.13-21.06,12.98Z"/>
    <path class="cls-1" d="M166.6,154.01c0,18.59-15.06,33.65-33.65,33.65h-22.13v-16.19c4.65,7.85,12.35,12.97,21.06,12.97,12.27,0,22.53-10.17,25.09-23.79l9.46-10.06c.11,1.12,.17,2.26,.17,3.41Z"/>
    <rect class="cls-1" x="89.4" y="68.33" width="10.12" height="119.34"/>
    <path class="cls-1" d="M166.08,147.97l-8.66,9.45-12.56,13.7-4.99,1.47,.17,1.04-7.38,.92-.47-2.88,7.06-2.22,.34,1.12,4.04-1.11,13.95-15.91,7.77-8.87c.36,1.26,.59,2.37,.74,3.28Z"/>
    <path class="cls-1" d="M132.7,140.46c-6.78,0-12.28,5.49-12.28,12.28s5.5,12.27,12.28,12.27,12.28-5.49,12.28-12.27-5.5-12.28-12.28-12.28Zm0,13.6c-.73,0-1.32-.59-1.32-1.32s.59-1.32,1.32-1.32,1.32,.59,1.32,1.32-.59,1.32-1.32,1.32Z"/>
  </g>
</svg>