<?xml version="1.0" encoding="UTF-8"?>
<svg id="Layer_1" data-name="Layer 1" xmlns="http://www.w3.org/2000/svg" viewBox="310 490 390 603">
  <defs>
    <style>
      .cls-1 {
        fill: #c8a96e;
      }

      .cls-2 {
        fill: #0a0a0f;
      }
    </style>
  </defs>
  <rect class="cls-2" width="2000" height="2000"/>
  <g>
    <path class="cls-1" d="M865.81,1066.8c-22.86,38.6-36.28,85.57-36.28,136.3v262.76h-16.2V534.13h16.2v489.93c10.48-8.52,24.36-21.72,36.28-39.56,18.17-27.18,31.83-65.07,22.03-113.46,0,0,31.62,76.59,91.26,76.11h.02c7.8-.08,16.04-1.45,24.77-4.5h.03c15.2-5.3,31.8-15.6,49.79-32.73,107.57-102.37,51.84-268.24,51.84-268.24,0,0-37.05-108.84-144.21-81.64,0,0-59.84,17.36-59.87,98.03,9.16-4.79,19.62-7.51,30.66-7.51,36.62,0,66.31,29.69,66.31,66.31s-29.69,66.31-66.31,66.31-66.32-29.69-66.32-66.31v-182.74h167.57c41.82,0,82.86,13.22,115.75,39.03,40.65,31.92,77.58,88.62,62.68,187.74-15.53,103.31-90.8,154.5-159.34,179.83,86.35,4.48,161.69,50.67,206.18,118.8,.1,.15,.19,.3,.29,.44,12.25,18.46,20.78,36.31,26.72,52.25-16.69,18.67-41.34,46.12-56.08,61.88-3.9-35.36-13.96-64.2-22.49-83.39-.01-.03-.02-.05-.03-.07-33.86-74.52-100.36-125.17-176.83-125.17-68.01,0-128.13,40.04-164.42,101.33Z"/>
    <path class="cls-1" d="M1301.34,1203.1c0,145.11-117.62,262.76-262.73,262.76h-172.8v-126.43c36.32,61.26,96.41,101.3,164.42,101.3,95.79,0,175.91-79.43,195.9-185.71l73.88-78.54c.88,8.75,1.33,17.63,1.33,26.62Z"/>
    <rect class="cls-1" x="698.66" y="534.14" width="79.05" height="931.73"/>
    <path class="cls-1" d="M1297.33,1155.88l-67.63,73.78-98.1,107-38.93,11.46,1.31,8.13-57.61,7.22-3.7-22.49,55.14-17.37,2.64,8.77,31.54-8.65,108.92-124.25,60.68-69.23c2.82,9.85,4.61,18.54,5.74,25.63Z"/>
    <path class="cls-1" d="M1036.72,1097.25c-52.93,0-95.84,42.9-95.84,95.84s42.91,95.83,95.84,95.83,95.84-42.9,95.84-95.83-42.92-95.84-95.84-95.84Zm0,106.16c-5.7,0-10.32-4.62-10.32-10.32s4.62-10.31,10.32-10.31,10.31,4.62,10.31,10.31-4.62,10.32-10.31,10.32Z"/>
  </g>
</svg>