<?xml version="1.0" encoding="UTF-8"?>
<svg id="Layer_1" data-name="Layer 1" xmlns="http://www.w3.org/2000/svg" viewBox="427 504 1146 982">
  <defs>
    <style>
      .cls-1 {
        fill: #c8a96e;
      }

      .cls-2 {
        fill: #0a0a0f;
      }
    </style>
  </defs>
  <rect class="cls-2" width="2000" height="2000"/>
  <g>
    <g>
      <path class="cls-1" d="M574.01,1367.43c8.01,3.69,14.23,9.1,18.64,16.23,4.41,7.14,6.61,15.19,6.61,24.17,0,13.31-4.65,24.25-13.95,32.82-9.3,8.58-21.56,12.87-36.79,12.87h-80.56v-168.33h73.34c15.23,0,27.49,4.33,36.79,12.99,9.3,8.66,13.95,19.72,13.95,33.19,0,15.55-6.01,27.58-18.04,36.07Zm-36.07-52.66h-36.55v40.4h36.55c6.73,0,12.14-1.92,16.23-5.77s6.13-8.74,6.13-14.67-2.04-10.74-6.13-14.43c-4.09-3.69-9.5-5.53-16.23-5.53Zm-36.55,109.17h41.12c6.73,0,12.1-1.88,16.11-5.65,4.01-3.76,6.01-8.62,6.01-14.55s-2.01-10.78-6.01-14.55c-4.01-3.76-9.38-5.65-16.11-5.65h-41.12v40.4Z"/>
      <path class="cls-1" d="M674.29,1327.03c15.71,0,28.45,4.09,38.23,12.26,9.78,8.18,14.67,20.12,14.67,35.83v78.39h-32.46v-15.15c-9.78,11.7-22.84,17.55-39.2,17.55-11.7,0-21.36-3.25-28.98-9.74-7.62-6.49-11.42-15.11-11.42-25.85,0-23.24,15.95-36.55,47.85-39.92l20.2-1.92c7.7-.48,11.54-3.76,11.54-9.86,0-4.49-1.89-8.09-5.65-10.82-3.77-2.72-8.62-4.09-14.55-4.09-6.41,0-11.66,1.65-15.75,4.93-4.09,3.29-6.7,7.9-7.82,13.83l-32.22-7.21c1.76-11.06,7.61-20.2,17.55-27.41,9.94-7.21,22.61-10.82,38-10.82Zm-10.82,103.16c8.5,0,15.83-2.89,22-8.66,6.17-5.77,9.26-12.42,9.26-19.96v-2.65c-1.6,1.29-5.29,2.33-11.06,3.13l-20.92,2.4c-4.65,.64-8.34,2.13-11.06,4.45-2.73,2.33-4.09,5.25-4.09,8.78s1.44,6.7,4.33,9.02c2.89,2.33,6.73,3.49,11.54,3.49Z"/>
      <path class="cls-1" d="M766.14,1437.41c-12.67-12.34-19-27.65-19-45.93s6.33-33.58,19-45.93c12.66-12.34,28.45-18.52,47.37-18.52,13.31,0,25.25,3.45,35.83,10.34,10.58,6.9,18.52,16.59,23.81,29.1l-29.82,10.34c-2.73-6.41-6.73-11.34-12.02-14.79-5.29-3.45-11.22-5.17-17.8-5.17-9.3,0-17.07,3.33-23.33,9.98-6.25,6.65-9.38,14.87-9.38,24.65s3.13,18.24,9.38,24.89c6.25,6.65,14.03,9.98,23.33,9.98,6.57,0,12.5-1.76,17.8-5.29,5.29-3.52,9.3-8.5,12.02-14.91l29.82,10.34c-5.29,12.5-13.23,22.21-23.81,29.1-10.58,6.89-22.53,10.34-35.83,10.34-18.92,0-34.71-6.17-47.37-18.52Z"/>
      <path class="cls-1" d="M962.61,1381.86l55.79,71.66h-40.88l-37.03-47.37-15.63,17.07v30.3h-32.46v-177.95h32.46v104.36l44.49-50.5h40.88l-47.61,52.42Z"/>
      <path class="cls-1" d="M1101.84,1327.03c16.99,0,31.18,6.17,42.56,18.52,11.38,12.35,17.07,27.65,17.07,45.93s-5.69,33.59-17.07,45.93c-11.38,12.35-25.57,18.52-42.56,18.52-15.87,0-29.02-5.69-39.44-17.07v14.67h-32.46v-177.95h32.46v68.54c10.42-11.38,23.57-17.07,39.44-17.07Zm-30.06,89.34c6.25,6.65,14.03,9.98,23.33,9.98s17.07-3.32,23.33-9.98c6.25-6.65,9.38-14.95,9.38-24.89s-3.13-18.19-9.38-24.77c-6.25-6.57-14.03-9.86-23.33-9.86s-17.07,3.33-23.33,9.98c-6.25,6.65-9.38,14.87-9.38,24.65s3.13,18.24,9.38,24.89Z"/>
      <path class="cls-1" d="M1242.52,1327.03c20.84,0,37.55,7.5,50.14,22.48,12.58,14.99,17.19,32.82,13.83,53.51h-95.71c2.24,7.54,6.37,13.59,12.38,18.16,6.01,4.57,13.19,6.85,21.52,6.85,14.11,0,24.37-5.77,30.78-17.31l26.69,12.02c-5.61,10.1-13.51,18.16-23.69,24.17-10.18,6.01-21.76,9.02-34.75,9.02-18.92,0-34.71-6.17-47.37-18.52-12.67-12.34-19-27.65-19-45.93s6.25-33.58,18.76-45.93c12.5-12.34,27.97-18.52,46.41-18.52Zm0,27.89c-7.21,0-13.67,2.13-19.36,6.37-5.69,4.25-9.66,9.9-11.9,16.95h62.76c-2.25-7.05-6.17-12.7-11.78-16.95-5.61-4.25-12.19-6.37-19.72-6.37Z"/>
      <path class="cls-1" d="M1380.78,1327.03c15.71,0,28.45,4.09,38.23,12.26,9.78,8.18,14.67,20.12,14.67,35.83v78.39h-32.46v-15.15c-9.78,11.7-22.84,17.55-39.2,17.55-11.7,0-21.36-3.25-28.98-9.74-7.62-6.49-11.42-15.11-11.42-25.85,0-23.24,15.95-36.55,47.85-39.92l20.2-1.92c7.7-.48,11.54-3.76,11.54-9.86,0-4.49-1.89-8.09-5.65-10.82-3.77-2.72-8.62-4.09-14.55-4.09-6.41,0-11.66,1.65-15.75,4.93-4.09,3.29-6.7,7.9-7.82,13.83l-32.22-7.21c1.76-11.06,7.61-20.2,17.55-27.41,9.94-7.21,22.61-10.82,38-10.82Zm-10.82,103.16c8.5,0,15.83-2.89,22-8.66,6.17-5.77,9.26-12.42,9.26-19.96v-2.65c-1.6,1.29-5.29,2.33-11.06,3.13l-20.92,2.4c-4.65,.64-8.34,2.13-11.06,4.45-2.73,2.33-4.09,5.25-4.09,8.78s1.44,6.7,4.33,9.02c2.89,2.33,6.73,3.49,11.54,3.49Z"/>
      <path class="cls-1" d="M1467.35,1358.05h-25.01v-28.62h25.01v-36.55l32.46-10.1v46.65h32.22v28.62h-32.22v49.3c0,11.7,5.85,17.55,17.55,17.55h14.67v28.62h-14.67c-17,0-29.58-3.97-37.76-11.9-8.18-7.94-12.26-20-12.26-36.19v-47.37Z"/>
    </g>
    <g>
      <path class="cls-1" d="M900.31,939.81c-16.98,28.68-26.95,63.57-26.95,101.26v195.21h-12.04V544.08h12.04v363.98c7.79-6.33,18.1-16.14,26.95-29.39,13.5-20.19,23.65-48.34,16.37-84.29,0,0,23.49,56.9,67.8,56.54h.01c5.79-.06,11.92-1.08,18.4-3.34h.02c11.29-3.94,23.62-11.59,36.99-24.32,79.92-76.05,38.51-199.28,38.51-199.28,0,0-27.53-80.86-107.14-60.65,0,0-44.46,12.9-44.48,72.83,6.81-3.56,14.58-5.58,22.78-5.58,27.21,0,49.26,22.06,49.26,49.26s-22.06,49.26-49.26,49.26-49.27-22.06-49.27-49.26v-135.76h124.49c31.07,0,61.56,9.82,85.99,29,30.2,23.71,57.64,65.84,46.57,139.48-11.54,76.75-67.46,114.78-118.38,133.6,64.15,3.33,120.12,37.64,153.18,88.26,.07,.11,.14,.22,.22,.33,9.1,13.71,15.44,26.98,19.85,38.82-12.4,13.87-30.71,34.26-41.66,45.97-2.9-26.27-10.37-47.7-16.71-61.95,0-.02-.01-.04-.02-.05-25.16-55.36-74.56-92.99-131.37-92.99-50.53,0-95.19,29.75-122.15,75.28Z"/>
      <path class="cls-1" d="M1223.87,1041.07c0,107.81-87.38,195.21-195.19,195.21h-128.38v-93.93c26.98,45.51,71.63,75.26,122.15,75.26,71.16,0,130.69-59.01,145.54-137.97l54.89-58.35c.65,6.5,.99,13.1,.99,19.78Z"/>
      <rect class="cls-1" x="776.13" y="544.08" width="58.73" height="692.2"/>
      <path class="cls-1" d="M1220.89,1005.99l-50.24,54.81-72.88,79.49-28.92,8.51,.97,6.04-42.8,5.36-2.75-16.71,40.96-12.9,1.96,6.52,23.43-6.43,80.92-92.31,45.08-51.43c2.09,7.32,3.42,13.77,4.26,19.04Z"/>
      <path class="cls-1" d="M1027.28,962.43c-39.32,0-71.2,31.87-71.2,71.2s31.88,71.19,71.2,71.19,71.2-31.87,71.2-71.19-31.89-71.2-71.2-71.2Zm0,78.87c-4.23,0-7.67-3.43-7.67-7.67s3.43-7.66,7.67-7.66,7.66,3.43,7.66,7.66-3.43,7.67-7.66,7.67Z"/>
    </g>
  </g>
</svg>