<?xml version="1.0" encoding="UTF-8"?>
<svg id="Layer_1" data-name="Layer 1" xmlns="http://www.w3.org/2000/svg" viewBox="286 799 1427 403">
  <defs>
    <style>
      .cls-1 {
        fill: #c8a96e;
      }

      .cls-2 {
        fill: #0a0a0f;
      }
    </style>
  </defs>
  <rect class="cls-2" width="2000" height="2000"/>
  <g>
    <g>
      <path class="cls-1" d="M715.16,1001.55c8.01,3.69,14.23,9.1,18.64,16.23,4.41,7.14,6.61,15.19,6.61,24.17,0,13.31-4.65,24.25-13.95,32.82-9.3,8.58-21.56,12.87-36.79,12.87h-80.56v-168.33h73.34c15.23,0,27.49,4.33,36.79,12.99,9.3,8.66,13.95,19.72,13.95,33.19,0,15.55-6.01,27.58-18.04,36.07Zm-36.07-52.66h-36.55v40.4h36.55c6.73,0,12.14-1.92,16.23-5.77s6.13-8.74,6.13-14.67-2.04-10.74-6.13-14.43c-4.09-3.69-9.5-5.53-16.23-5.53Zm-36.55,109.17h41.12c6.73,0,12.1-1.88,16.11-5.65,4.01-3.76,6.01-8.62,6.01-14.55s-2.01-10.78-6.01-14.55c-4.01-3.76-9.38-5.65-16.11-5.65h-41.12v40.4Z"/>
      <path class="cls-1" d="M815.44,961.15c15.71,0,28.45,4.09,38.23,12.26,9.78,8.18,14.67,20.12,14.67,35.83v78.39h-32.46v-15.15c-9.78,11.7-22.84,17.55-39.2,17.55-11.7,0-21.36-3.25-28.98-9.74-7.62-6.49-11.42-15.11-11.42-25.85,0-23.24,15.95-36.55,47.85-39.92l20.2-1.92c7.7-.48,11.54-3.76,11.54-9.86,0-4.49-1.89-8.09-5.65-10.82-3.77-2.72-8.62-4.09-14.55-4.09-6.41,0-11.66,1.65-15.75,4.93-4.09,3.29-6.7,7.9-7.82,13.83l-32.22-7.21c1.76-11.06,7.61-20.2,17.55-27.41,9.94-7.21,22.61-10.82,38-10.82Zm-10.82,103.16c8.5,0,15.83-2.89,22-8.66,6.17-5.77,9.26-12.42,9.26-19.96v-2.65c-1.6,1.29-5.29,2.33-11.06,3.13l-20.92,2.4c-4.65,.64-8.34,2.13-11.06,4.45-2.73,2.33-4.09,5.25-4.09,8.78s1.44,6.7,4.33,9.02c2.89,2.33,6.73,3.49,11.54,3.49Z"/>
      <path class="cls-1" d="M907.29,1071.53c-12.67-12.34-19-27.65-19-45.93s6.33-33.58,19-45.93c12.66-12.34,28.45-18.52,47.37-18.52,13.31,0,25.25,3.45,35.83,10.34,10.58,6.9,18.52,16.59,23.81,29.1l-29.82,10.34c-2.73-6.41-6.73-11.34-12.02-14.79-5.29-3.45-11.22-5.17-17.8-5.17-9.3,0-17.07,3.33-23.33,9.98-6.25,6.65-9.38,14.87-9.38,24.65s3.13,18.24,9.38,24.89c6.25,6.65,14.03,9.98,23.33,9.98,6.57,0,12.5-1.76,17.8-5.29,5.29-3.52,9.3-8.5,12.02-14.91l29.82,10.34c-5.29,12.5-13.23,22.21-23.81,29.1-10.58,6.89-22.53,10.34-35.83,10.34-18.92,0-34.71-6.17-47.37-18.52Z"/>
      <path class="cls-1" d="M1103.76,1015.98l55.79,71.66h-40.88l-37.03-47.37-15.63,17.07v30.3h-32.46v-177.95h32.46v104.36l44.49-50.5h40.88l-47.61,52.42Z"/>
      <path class="cls-1" d="M1242.99,961.15c16.99,0,31.18,6.17,42.56,18.52,11.38,12.35,17.07,27.65,17.07,45.93s-5.69,33.59-17.07,45.93c-11.38,12.35-25.57,18.52-42.56,18.52-15.87,0-29.02-5.69-39.44-17.07v14.67h-32.46v-177.95h32.46v68.54c10.42-11.38,23.57-17.07,39.44-17.07Zm-30.06,89.34c6.25,6.65,14.03,9.98,23.33,9.98s17.07-3.32,23.33-9.98c6.25-6.65,9.38-14.95,9.38-24.89s-3.13-18.19-9.38-24.77c-6.25-6.57-14.03-9.86-23.33-9.86s-17.07,3.33-23.33,9.98c-6.25,6.65-9.38,14.87-9.38,24.65s3.13,18.24,9.38,24.89Z"/>
      <path class="cls-1" d="M1383.67,961.15c20.84,0,37.55,7.5,50.14,22.48,12.58,14.99,17.19,32.82,13.83,53.51h-95.71c2.24,7.54,6.37,13.59,12.38,18.16,6.01,4.57,13.19,6.85,21.52,6.85,14.11,0,24.37-5.77,30.78-17.31l26.69,12.02c-5.61,10.1-13.51,18.16-23.69,24.17-10.18,6.01-21.76,9.02-34.75,9.02-18.92,0-34.71-6.17-47.37-18.52-12.67-12.34-19-27.65-19-45.93s6.25-33.58,18.76-45.93c12.5-12.34,27.97-18.52,46.41-18.52Zm0,27.89c-7.21,0-13.67,2.13-19.36,6.37-5.69,4.25-9.66,9.9-11.9,16.95h62.76c-2.25-7.05-6.17-12.7-11.78-16.95-5.61-4.25-12.19-6.37-19.72-6.37Z"/>
      <path class="cls-1" d="M1521.93,961.15c15.71,0,28.45,4.09,38.23,12.26,9.78,8.18,14.67,20.12,14.67,35.83v78.39h-32.46v-15.15c-9.78,11.7-22.84,17.55-39.2,17.55-11.7,0-21.36-3.25-28.98-9.74-7.62-6.49-11.42-15.11-11.42-25.85,0-23.24,15.95-36.55,47.85-39.92l20.2-1.92c7.7-.48,11.54-3.76,11.54-9.86,0-4.49-1.89-8.09-5.65-10.82-3.77-2.72-8.62-4.09-14.55-4.09-6.41,0-11.66,1.65-15.75,4.93-4.09,3.29-6.7,7.9-7.82,13.83l-32.22-7.21c1.76-11.06,7.61-20.2,17.55-27.41,9.94-7.21,22.61-10.82,38-10.82Zm-10.82,103.16c8.5,0,15.83-2.89,22-8.66,6.17-5.77,9.26-12.42,9.26-19.96v-2.65c-1.6,1.29-5.29,2.33-11.06,3.13l-20.92,2.4c-4.65,.64-8.34,2.13-11.06,4.45-2.73,2.33-4.09,5.25-4.09,8.78s1.44,6.7,4.33,9.02c2.89,2.33,6.73,3.49,11.54,3.49Z"/>
      <path class="cls-1" d="M1608.5,992.18h-25.01v-28.62h25.01v-36.55l32.46-10.1v46.65h32.22v28.62h-32.22v49.3c0,11.7,5.85,17.55,17.55,17.55h14.67v28.62h-14.67c-17,0-29.58-3.97-37.76-11.9-8.18-7.94-12.26-20-12.26-36.19v-47.37Z"/>
    </g>
    <g>
      <path class="cls-1" d="M395,1027.25c-9.33,15.75-14.8,34.91-14.8,55.61v107.2h-6.61v-380.11h6.61v199.87c4.28-3.48,9.94-8.86,14.8-16.14,7.41-11.09,12.99-26.55,8.99-46.29,0,0,12.9,31.25,37.23,31.05h0c3.18-.03,6.54-.59,10.11-1.84h.01c6.2-2.16,12.97-6.36,20.31-13.35,43.88-41.76,21.15-109.43,21.15-109.43,0,0-15.12-44.4-58.83-33.31,0,0-24.41,7.08-24.42,39.99,3.74-1.95,8-3.06,12.51-3.06,14.94,0,27.05,12.11,27.05,27.05s-12.11,27.05-27.05,27.05-27.06-12.11-27.06-27.05v-74.55h68.36c17.06,0,33.8,5.39,47.22,15.92,16.58,13.02,31.65,36.15,25.57,76.59-6.34,42.15-37.04,63.03-65,73.36,35.23,1.83,65.96,20.67,84.11,48.47,.04,.06,.08,.12,.12,.18,5,7.53,8.48,14.81,10.9,21.32-6.81,7.62-16.87,18.82-22.88,25.24-1.59-14.43-5.7-26.19-9.18-34.02,0-.01,0-.02-.01-.03-13.81-30.4-40.94-51.06-72.14-51.06-27.75,0-52.27,16.33-67.08,41.34Z"/>
      <path class="cls-1" d="M572.68,1082.86c0,59.2-47.98,107.2-107.18,107.2h-70.5v-51.58c14.82,24.99,39.33,41.33,67.08,41.33,39.08,0,71.76-32.4,79.92-75.76l30.14-32.04c.36,3.57,.54,7.19,.54,10.86Z"/>
      <rect class="cls-1" x="326.81" y="809.95" width="32.25" height="380.11"/>
      <path class="cls-1" d="M571.04,1063.59l-27.59,30.1-40.02,43.65-15.88,4.68,.53,3.32-23.5,2.95-1.51-9.18,22.5-7.09,1.08,3.58,12.87-3.53,44.44-50.69,24.76-28.24c1.15,4.02,1.88,7.56,2.34,10.46Z"/>
      <path class="cls-1" d="M464.73,1039.67c-21.59,0-39.1,17.5-39.1,39.1s17.51,39.1,39.1,39.1,39.1-17.5,39.1-39.1-17.51-39.1-39.1-39.1Zm0,43.31c-2.33,0-4.21-1.88-4.21-4.21s1.88-4.21,4.21-4.21,4.21,1.88,4.21,4.21-1.88,4.21-4.21,4.21Z"/>
    </g>
  </g>
</svg>