<?xml version="1.0" encoding="UTF-8"?>
<svg id="Layer_1" data-name="Layer 1" xmlns="http://www.w3.org/2000/svg" viewBox="0 0 2000 2000">
  <defs>
    <style>
      .cls-1 {
        fill: #c8a96e;
      }

      .cls-2 {
        fill: #0a0a0f;
      }
    </style>
  </defs>
  <rect class="cls-2" width="2000" height="2000"/>
  <g>
    <g>
      <path class="cls-1" d="M495.22,1018.53c-6.35,10.72-10.07,23.76-10.07,37.84v72.96h-4.5v-258.7h4.5v136.03c2.91-2.37,6.76-6.03,10.07-10.98,5.04-7.55,8.84-18.07,6.12-31.5,0,0,8.78,21.27,25.34,21.13h0c2.17-.02,4.45-.4,6.88-1.25h0c4.22-1.47,8.83-4.33,13.82-9.09,29.87-28.42,14.39-74.48,14.39-74.48,0,0-10.29-30.22-40.04-22.67,0,0-16.61,4.82-16.62,27.22,2.54-1.33,5.45-2.09,8.51-2.09,10.17,0,18.41,8.24,18.41,18.41s-8.24,18.41-18.41,18.41-18.41-8.24-18.41-18.41v-50.74h46.53c11.61,0,23.01,3.67,32.14,10.84,11.29,8.86,21.54,24.61,17.4,52.13-4.31,28.68-25.21,42.9-44.24,49.93,23.98,1.24,44.89,14.07,57.25,32.99,.03,.04,.05,.08,.08,.12,3.4,5.13,5.77,10.08,7.42,14.51-4.63,5.18-11.48,12.81-15.57,17.18-1.08-9.82-3.88-17.83-6.24-23.15,0,0,0-.01,0-.02-9.4-20.69-27.87-34.75-49.1-34.75-18.88,0-35.58,11.12-45.65,28.13Z"/>
      <path class="cls-1" d="M616.15,1056.38c0,40.29-32.66,72.96-72.95,72.96h-47.98v-35.1c10.08,17.01,26.77,28.13,45.65,28.13,26.6,0,48.84-22.05,54.39-51.56l20.51-21.81c.24,2.43,.37,4.9,.37,7.39Z"/>
      <rect class="cls-1" x="448.81" y="870.64" width="21.95" height="258.7"/>
      <path class="cls-1" d="M615.04,1043.27l-18.78,20.49-27.24,29.71-10.81,3.18,.36,2.26-16,2-1.03-6.24,15.31-4.82,.73,2.44,8.76-2.4,30.24-34.5,16.85-19.22c.78,2.73,1.28,5.15,1.59,7.12Z"/>
      <path class="cls-1" d="M542.68,1026.99c-14.7,0-26.61,11.91-26.61,26.61s11.91,26.61,26.61,26.61,26.61-11.91,26.61-26.61-11.92-26.61-26.61-26.61Zm0,29.48c-1.58,0-2.87-1.28-2.87-2.87s1.28-2.86,2.87-2.86,2.86,1.28,2.86,2.86-1.28,2.87-2.86,2.87Z"/>
      <path class="cls-1" d="M589.97,1025.15s12.08,24.04,3.17,54.26l22.44-14.98s4.66-24.74-11.17-47.36"/>
    </g>
    <g>
      <path class="cls-1" d="M693.43,1000.47c15.71,0,28.45,4.09,38.23,12.26,9.78,8.18,14.67,20.12,14.67,35.83v78.39h-32.46v-15.15c-9.78,11.7-22.84,17.55-39.2,17.55-11.7,0-21.36-3.25-28.98-9.74-7.62-6.49-11.42-15.11-11.42-25.85,0-23.24,15.95-36.55,47.85-39.92l20.2-1.92c7.7-.48,11.54-3.76,11.54-9.86,0-4.49-1.89-8.09-5.65-10.82-3.77-2.72-8.62-4.09-14.55-4.09-6.41,0-11.66,1.65-15.75,4.93-4.09,3.29-6.7,7.9-7.82,13.83l-32.22-7.21c1.76-11.06,7.61-20.2,17.55-27.41,9.94-7.21,22.61-10.82,38-10.82Zm-10.82,103.16c8.5,0,15.83-2.89,22-8.66,6.17-5.77,9.26-12.42,9.26-19.96v-2.65c-1.6,1.29-5.29,2.33-11.06,3.13l-20.92,2.4c-4.65,.64-8.34,2.13-11.06,4.45-2.73,2.33-4.09,5.25-4.09,8.78s1.44,6.7,4.33,9.02c2.89,2.33,6.73,3.49,11.54,3.49Z"/>
      <path class="cls-1" d="M785.29,1110.85c-12.67-12.34-19-27.65-19-45.93s6.33-33.58,19-45.93c12.66-12.34,28.45-18.52,47.37-18.52,13.31,0,25.25,3.45,35.83,10.34,10.58,6.9,18.52,16.59,23.81,29.1l-29.82,10.34c-2.73-6.41-6.73-11.34-12.02-14.79-5.29-3.45-11.22-5.17-17.8-5.17-9.3,0-17.07,3.33-23.33,9.98-6.25,6.65-9.38,14.87-9.38,24.65s3.13,18.24,9.38,24.89c6.25,6.65,14.03,9.98,23.33,9.98,6.57,0,12.5-1.76,17.8-5.29,5.29-3.52,9.3-8.5,12.02-14.91l29.82,10.34c-5.29,12.5-13.23,22.21-23.81,29.1-10.58,6.89-22.53,10.34-35.83,10.34-18.92,0-34.71-6.17-47.37-18.52Z"/>
      <path class="cls-1" d="M981.75,1055.3l55.79,71.66h-40.88l-37.03-47.37-15.63,17.07v30.3h-32.46v-177.95h32.46v104.36l44.49-50.5h40.88l-47.61,52.42Z"/>
      <path class="cls-1" d="M1120.99,1000.47c16.99,0,31.18,6.17,42.56,18.52,11.38,12.35,17.07,27.65,17.07,45.93s-5.69,33.59-17.07,45.93c-11.38,12.35-25.57,18.52-42.56,18.52-15.87,0-29.02-5.69-39.44-17.07v14.67h-32.46v-177.95h32.46v68.54c10.42-11.38,23.57-17.07,39.44-17.07Zm-30.06,89.34c6.25,6.65,14.03,9.98,23.33,9.98s17.07-3.32,23.33-9.98c6.25-6.65,9.38-14.95,9.38-24.89s-3.13-18.19-9.38-24.77c-6.25-6.57-14.03-9.86-23.33-9.86s-17.07,3.33-23.33,9.98c-6.25,6.65-9.38,14.87-9.38,24.65s3.13,18.24,9.38,24.89Z"/>
      <path class="cls-1" d="M1261.66,1000.47c20.84,0,37.55,7.5,50.14,22.48,12.58,14.99,17.19,32.82,13.83,53.51h-95.71c2.24,7.54,6.37,13.59,12.38,18.16,6.01,4.57,13.19,6.85,21.52,6.85,14.11,0,24.37-5.77,30.78-17.31l26.69,12.02c-5.61,10.1-13.51,18.16-23.69,24.17-10.18,6.01-21.76,9.02-34.75,9.02-18.92,0-34.71-6.17-47.37-18.52-12.67-12.34-19-27.65-19-45.93s6.25-33.58,18.76-45.93c12.5-12.34,27.97-18.52,46.41-18.52Zm0,27.89c-7.21,0-13.67,2.13-19.36,6.37-5.69,4.25-9.66,9.9-11.9,16.95h62.76c-2.25-7.05-6.17-12.7-11.78-16.95-5.61-4.25-12.19-6.37-19.72-6.37Z"/>
      <path class="cls-1" d="M1399.93,1000.47c15.71,0,28.45,4.09,38.23,12.26,9.78,8.18,14.67,20.12,14.67,35.83v78.39h-32.46v-15.15c-9.78,11.7-22.84,17.55-39.2,17.55-11.7,0-21.36-3.25-28.98-9.74-7.62-6.49-11.42-15.11-11.42-25.85,0-23.24,15.95-36.55,47.85-39.92l20.2-1.92c7.7-.48,11.54-3.76,11.54-9.86,0-4.49-1.89-8.09-5.65-10.82-3.77-2.72-8.62-4.09-14.55-4.09-6.41,0-11.66,1.65-15.75,4.93-4.09,3.29-6.7,7.9-7.82,13.83l-32.22-7.21c1.76-11.06,7.61-20.2,17.55-27.41,9.94-7.21,22.61-10.82,38-10.82Zm-10.82,103.16c8.5,0,15.83-2.89,22-8.66,6.17-5.77,9.26-12.42,9.26-19.96v-2.65c-1.6,1.29-5.29,2.33-11.06,3.13l-20.92,2.4c-4.65,.64-8.34,2.13-11.06,4.45-2.73,2.33-4.09,5.25-4.09,8.78s1.44,6.7,4.33,9.02c2.89,2.33,6.73,3.49,11.54,3.49Z"/>
      <path class="cls-1" d="M1486.5,1031.49h-25.01v-28.62h25.01v-36.55l32.46-10.1v46.65h32.22v28.62h-32.22v49.3c0,11.7,5.85,17.55,17.55,17.55h14.67v28.62h-14.67c-17,0-29.58-3.97-37.76-11.9-8.18-7.94-12.26-20-12.26-36.19v-47.37Z"/>
    </g>
  </g>
</svg>